<svg width="52" height="14" viewBox="0 0 52 14" fill="none" xmlns="http://www.w3.org/2000/svg">
<path d="M17.8424 6.45636H21.2124V7.71636H17.8424V6.45636ZM17.9624 9.33636H21.7724V10.6364H16.3524V3.63636H21.6424V4.93636H17.9624V9.33636ZM24.7321 10.7164C24.2721 10.7164 23.8287 10.663 23.4021 10.5564C22.9821 10.443 22.6487 10.303 22.4021 10.1364L22.9221 9.01636C23.1687 9.1697 23.4587 9.29636 23.7921 9.39636C24.1321 9.4897 24.4654 9.53636 24.7921 9.53636C25.1521 9.53636 25.4054 9.49303 25.5521 9.40636C25.7054 9.3197 25.7821 9.1997 25.7821 9.04636C25.7821 8.9197 25.7221 8.82636 25.6021 8.76636C25.4887 8.6997 25.3354 8.6497 25.1421 8.61636C24.9487 8.58303 24.7354 8.5497 24.5021 8.51636C24.2754 8.48303 24.0454 8.4397 23.8121 8.38636C23.5787 8.32636 23.3654 8.2397 23.1721 8.12636C22.9787 8.01303 22.8221 7.8597 22.7021 7.66636C22.5887 7.47303 22.5321 7.22303 22.5321 6.91636C22.5321 6.57636 22.6287 6.27636 22.8221 6.01636C23.0221 5.75636 23.3087 5.55303 23.6821 5.40636C24.0554 5.25303 24.5021 5.17636 25.0221 5.17636C25.3887 5.17636 25.7621 5.21636 26.1421 5.29636C26.5221 5.37636 26.8387 5.49303 27.0921 5.64636L26.5721 6.75636C26.3121 6.60303 26.0487 6.4997 25.7821 6.44636C25.5221 6.38636 25.2687 6.35636 25.0221 6.35636C24.6754 6.35636 24.4221 6.40303 24.2621 6.49636C24.1021 6.5897 24.0221 6.7097 24.0221 6.85636C24.0221 6.9897 24.0787 7.0897 24.1921 7.15636C24.3121 7.22303 24.4687 7.27636 24.6621 7.31636C24.8554 7.35636 25.0654 7.39303 25.2921 7.42636C25.5254 7.45303 25.7587 7.49636 25.9921 7.55636C26.2254 7.61636 26.4354 7.70303 26.6221 7.81636C26.8154 7.92303 26.9721 8.07303 27.0921 8.26636C27.2121 8.45303 27.2721 8.6997 27.2721 9.00636C27.2721 9.3397 27.1721 9.63636 26.9721 9.89636C26.7721 10.1497 26.4821 10.3497 26.1021 10.4964C25.7287 10.643 25.2721 10.7164 24.7321 10.7164ZM30.4346 10.7164C29.8012 10.7164 29.3079 10.5564 28.9546 10.2364C28.6012 9.9097 28.4246 9.42636 28.4246 8.78636V4.06636H29.9846V8.76636C29.9846 8.99303 30.0446 9.1697 30.1646 9.29636C30.2846 9.41636 30.4479 9.47636 30.6546 9.47636C30.9012 9.47636 31.1112 9.4097 31.2846 9.27636L31.7046 10.3764C31.5446 10.4897 31.3512 10.5764 31.1246 10.6364C30.9046 10.6897 30.6746 10.7164 30.4346 10.7164ZM27.5946 6.57636V5.37636H31.3246V6.57636H27.5946ZM34.9743 10.7164C34.4009 10.7164 33.8909 10.5964 33.4443 10.3564C33.0043 10.1164 32.6543 9.7897 32.3943 9.37636C32.1409 8.95636 32.0143 8.4797 32.0143 7.94636C32.0143 7.40636 32.1409 6.9297 32.3943 6.51636C32.6543 6.09636 33.0043 5.7697 33.4443 5.53636C33.8909 5.29636 34.4009 5.17636 34.9743 5.17636C35.5409 5.17636 36.0476 5.29636 36.4943 5.53636C36.9409 5.7697 37.2909 6.09303 37.5443 6.50636C37.7976 6.9197 37.9243 7.3997 37.9243 7.94636C37.9243 8.4797 37.7976 8.95636 37.5443 9.37636C37.2909 9.7897 36.9409 10.1164 36.4943 10.3564C36.0476 10.5964 35.5409 10.7164 34.9743 10.7164ZM34.9743 9.43636C35.2343 9.43636 35.4676 9.37636 35.6743 9.25636C35.8809 9.13636 36.0443 8.96636 36.1643 8.74636C36.2843 8.5197 36.3443 8.25303 36.3443 7.94636C36.3443 7.63303 36.2843 7.36636 36.1643 7.14636C36.0443 6.92636 35.8809 6.75636 35.6743 6.63636C35.4676 6.51636 35.2343 6.45636 34.9743 6.45636C34.7143 6.45636 34.4809 6.51636 34.2743 6.63636C34.0676 6.75636 33.9009 6.92636 33.7743 7.14636C33.6543 7.36636 33.5943 7.63303 33.5943 7.94636C33.5943 8.25303 33.6543 8.5197 33.7743 8.74636C33.9009 8.96636 34.0676 9.13636 34.2743 9.25636C34.4809 9.37636 34.7143 9.43636 34.9743 9.43636ZM40.257 9.53636L40.297 7.63636L42.807 5.25636H44.667L42.257 7.70636L41.447 8.36636L40.257 9.53636ZM38.967 10.6364V3.21636H40.527V10.6364H38.967ZM42.977 10.6364L41.157 8.37636L42.137 7.16636L44.867 10.6364H42.977ZM48.014 10.7164C47.4006 10.7164 46.8606 10.5964 46.394 10.3564C45.934 10.1164 45.5773 9.7897 45.324 9.37636C45.0706 8.95636 44.944 8.4797 44.944 7.94636C44.944 7.40636 45.0673 6.9297 45.314 6.51636C45.5673 6.09636 45.9106 5.7697 46.344 5.53636C46.7773 5.29636 47.2673 5.17636 47.814 5.17636C48.3406 5.17636 48.814 5.2897 49.234 5.51636C49.6606 5.73636 49.9973 6.05636 50.244 6.47636C50.4906 6.8897 50.614 7.38636 50.614 7.96636C50.614 8.02636 50.6106 8.09636 50.604 8.17636C50.5973 8.2497 50.5906 8.3197 50.584 8.38636H46.214V7.47636H49.764L49.164 7.74636C49.164 7.46636 49.1073 7.22303 48.994 7.01636C48.8806 6.8097 48.724 6.6497 48.524 6.53636C48.324 6.41636 48.0906 6.35636 47.824 6.35636C47.5573 6.35636 47.3206 6.41636 47.114 6.53636C46.914 6.6497 46.7573 6.81303 46.644 7.02636C46.5306 7.23303 46.474 7.4797 46.474 7.76636V8.00636C46.474 8.2997 46.5373 8.5597 46.664 8.78636C46.7973 9.00636 46.9806 9.17636 47.214 9.29636C47.454 9.4097 47.734 9.46636 48.054 9.46636C48.3406 9.46636 48.5906 9.42303 48.804 9.33636C49.024 9.2497 49.224 9.1197 49.404 8.94636L50.234 9.84636C49.9873 10.1264 49.6773 10.343 49.304 10.4964C48.9306 10.643 48.5006 10.7164 48.014 10.7164Z" fill="url(#paint0_linear_7_2)"/>
<path d="M8.61726 5.60469L8.61744 5.60487L8.61726 5.60469ZM8.61726 5.60469L8.61724 5.60468L8.61726 5.60469ZM2.99019 2.5165L6.07402 3.7154L5.62217 3.89005L2.5397 2.69912L2.99019 2.5165ZM1.43703 7.88374V4.09872L4.77082 5.38646V9.4509L1.63699 8.18031L1.63684 8.18025C1.5778 8.15634 1.52724 8.11534 1.49165 8.06252C1.45605 8.00969 1.43703 7.94744 1.43703 7.88374ZM6.1228 10.2699C6.12237 10.2683 6.12235 10.2667 6.12274 10.2651L6.33713 9.40806C6.33713 9.40803 6.33714 9.408 6.33715 9.40797C6.37074 9.27458 6.43968 9.15271 6.5367 9.0552C6.53685 9.05505 6.53701 9.05489 6.53716 9.05474L9.29902 6.29289C9.40641 6.19002 9.54975 6.13307 9.69854 6.13425C9.84845 6.13545 9.99187 6.19553 10.0978 6.30155C10.2038 6.40757 10.2639 6.55101 10.265 6.70091C10.2662 6.84972 10.2092 6.99305 10.1062 7.10042L7.34459 9.86207C7.34452 9.86213 7.34446 9.86219 7.3444 9.86225C7.24687 9.9595 7.1249 10.0286 6.99136 10.0623C6.99124 10.0623 6.99111 10.0624 6.99099 10.0624L6.1345 10.2763L6.134 10.2764C6.13244 10.2768 6.13081 10.2768 6.12927 10.2763C6.12772 10.2759 6.12631 10.2751 6.12518 10.274L5.77176 10.6276L6.12518 10.274C6.12405 10.2728 6.12323 10.2714 6.1228 10.2699ZM8.97099 5.95843C9.11757 5.81213 9.30444 5.71285 9.50773 5.67329C9.57217 5.66075 9.63733 5.65439 9.70236 5.65412C9.84257 5.65354 9.98216 5.68128 10.1125 5.73644L10.2736 5.80459C10.3373 5.84562 10.397 5.89361 10.4515 5.94805C10.6502 6.1469 10.7629 6.41593 10.765 6.69709C10.7672 6.97825 10.6587 7.24897 10.4629 7.45083L8.97099 5.95843ZM8.26389 5.25132L6.4736 7.04161V5.38642L9.80738 4.09832V4.65659C9.64386 4.64852 9.47911 4.6601 9.31669 4.69171C8.918 4.7693 8.55151 4.96407 8.26412 5.25109L8.26389 5.25132ZM6.09448 1.64075L8.70457 2.69898L8.43066 2.80477L5.30504 1.58932C5.56546 1.5214 5.84241 1.53855 6.09448 1.64075Z" fill="url(#paint1_linear_7_2)" stroke="url(#paint2_linear_7_2)"/>
<defs>
<linearGradient id="paint0_linear_7_2" x1="15.5224" y1="7.31818" x2="52" y2="7.31818" gradientUnits="userSpaceOnUse">
<stop stop-color="#8D99AE"/>
<stop offset="0.75" stop-color="#EDF2F4"/>
</linearGradient>
<linearGradient id="paint1_linear_7_2" x1="0.937035" y1="5.91266" x2="10.765" y2="5.91266" gradientUnits="userSpaceOnUse">
<stop stop-color="#8D99AE"/>
<stop offset="0.75" stop-color="#EDF2F4"/>
</linearGradient>
<linearGradient id="paint2_linear_7_2" x1="0.937035" y1="5.91266" x2="10.765" y2="5.91266" gradientUnits="userSpaceOnUse">
<stop stop-color="#8D99AE"/>
<stop offset="0.75" stop-color="#EDF2F4"/>
</linearGradient>
</defs>
</svg>
