<svg width="12" height="12" viewBox="0 0 12 12" fill="none" xmlns="http://www.w3.org/2000/svg">
<path d="M8.61726 5.60469L8.61744 5.60487L8.61726 5.60469ZM8.61726 5.60469L8.61724 5.60468L8.61726 5.60469ZM2.99019 2.5165L6.07402 3.7154L5.62217 3.89005L2.5397 2.69912L2.99019 2.5165ZM1.43703 7.88374V4.09872L4.77082 5.38646V9.4509L1.63699 8.18031L1.63684 8.18025C1.5778 8.15634 1.52724 8.11534 1.49165 8.06252C1.45605 8.00969 1.43703 7.94744 1.43703 7.88374ZM6.1228 10.2699C6.12237 10.2683 6.12235 10.2667 6.12274 10.2651L6.33713 9.40806C6.33713 9.40803 6.33714 9.408 6.33715 9.40797C6.37074 9.27458 6.43968 9.15271 6.5367 9.0552C6.53685 9.05505 6.53701 9.05489 6.53716 9.05474L9.29902 6.29289C9.40641 6.19002 9.54975 6.13307 9.69854 6.13425C9.84845 6.13545 9.99187 6.19553 10.0978 6.30155C10.2038 6.40757 10.2639 6.55101 10.265 6.70091C10.2662 6.84972 10.2092 6.99305 10.1062 7.10042L7.34459 9.86207C7.34452 9.86213 7.34446 9.86219 7.3444 9.86225C7.24687 9.9595 7.1249 10.0286 6.99136 10.0623C6.99124 10.0623 6.99111 10.0624 6.99099 10.0624L6.1345 10.2763L6.134 10.2764C6.13244 10.2768 6.13081 10.2768 6.12927 10.2763C6.12772 10.2759 6.12631 10.2751 6.12518 10.274L5.77176 10.6276L6.12518 10.274C6.12405 10.2728 6.12323 10.2714 6.1228 10.2699ZM8.97099 5.95843C9.11757 5.81213 9.30444 5.71285 9.50773 5.67329C9.57217 5.66075 9.63733 5.65439 9.70236 5.65412C9.84257 5.65354 9.98216 5.68128 10.1125 5.73644L10.2736 5.80459C10.3373 5.84562 10.397 5.89361 10.4515 5.94805C10.6502 6.1469 10.7629 6.41593 10.765 6.69709C10.7672 6.97825 10.6587 7.24897 10.4629 7.45083L8.97099 5.95843ZM8.26389 5.25132L6.4736 7.04161V5.38642L9.80738 4.09832V4.65659C9.64386 4.64852 9.47911 4.6601 9.31669 4.69171C8.918 4.7693 8.55151 4.96407 8.26412 5.25109L8.26389 5.25132ZM6.09448 1.64075L8.70457 2.69898L8.43066 2.80477L5.30504 1.58932C5.56546 1.5214 5.84241 1.53855 6.09448 1.64075Z" fill="url(#paint0_linear_4_7)" stroke="url(#paint1_linear_4_7)"/>
<defs>
<linearGradient id="paint0_linear_4_7" x1="0.937035" y1="5.91266" x2="10.765" y2="5.91266" gradientUnits="userSpaceOnUse">
<stop stop-color="#8D99AE"/>
<stop offset="0.75" stop-color="#EDF2F4"/>
</linearGradient>
<linearGradient id="paint1_linear_4_7" x1="0.937035" y1="5.91266" x2="10.765" y2="5.91266" gradientUnits="userSpaceOnUse">
<stop stop-color="#8D99AE"/>
<stop offset="0.75" stop-color="#EDF2F4"/>
</linearGradient>
</defs>
</svg>
